HIERARCHY
ROOT root
{
	OFFSET 0.000000 0.000000 0.000000
	CHANNELS 6 Xposition Yposition Zposition Zrotation Yrotation Xrotation
	JOINT lhip
	{
		OFFSET 0.058581 -0.082280 -0.017664
		CHANNELS 3 Zrotation Yrotation Xrotation
		JOINT lknee
		{
			OFFSET 0.043451 -0.386469 0.008037
			CHANNELS 3 Zrotation Yrotation Xrotation
			JOINT lankle
			{
				OFFSET -0.014790 -0.426874 -0.037428
				CHANNELS 3 Zrotation Yrotation Xrotation
				JOINT ltoe
				{
					OFFSET 0.041054 -0.060286 0.122042
					CHANNELS 3 Zrotation Yrotation Xrotation
					End Site
					{
						OFFSET 0.000000 0.000000 0.000000
					}
				}
			}
		}
	}
	JOINT rhip
	{
		OFFSET -0.060310 -0.090513 -0.013543
		CHANNELS 3 Zrotation Yrotation Xrotation
		JOINT rknee
		{
			OFFSET -0.043257 -0.383688 -0.004843
			CHANNELS 3 Zrotation Yrotation Xrotation
			JOINT rankle
			{
				OFFSET 0.019056 -0.420046 -0.034562
				CHANNELS 3 Zrotation Yrotation Xrotation
				JOINT rtoe
				{
					OFFSET -0.034840 -0.062106 0.130323
					CHANNELS 3 Zrotation Yrotation Xrotation
					End Site
					{
						OFFSET 0.000000 0.000000 0.000000
					}
				}
			}
		}
	}
	JOINT lowerback
	{
		OFFSET 0.004439 0.124404 -0.038385
		CHANNELS 3 Zrotation Yrotation Xrotation
		JOINT upperback
		{
			OFFSET 0.004488 0.137956 0.026820
			CHANNELS 3 Zrotation Yrotation Xrotation
			JOINT chest
			{
				OFFSET -0.002265 0.056032 0.002855
				CHANNELS 3 Zrotation Yrotation Xrotation
				JOINT lowerneck
				{
					OFFSET -0.013390 0.211636 -0.033468
					CHANNELS 3 Zrotation Yrotation Xrotation
					JOINT upperneck
					{
						OFFSET 0.010113 0.088937 0.050410
						CHANNELS 3 Zrotation Yrotation Xrotation
						End Site
						{
							OFFSET 0.000000 0.000000 0.000000
						}
					}
				}
				JOINT lclavicle
				{
					OFFSET 0.071702 0.114000 -0.018898
					CHANNELS 3 Zrotation Yrotation Xrotation
					JOINT lshoulder
					{
						OFFSET 0.122921 0.045205 -0.019046
						CHANNELS 3 Zrotation Yrotation Xrotation
						JOINT lelbow
						{
							OFFSET 0.255332 -0.015649 -0.022946
							CHANNELS 3 Zrotation Yrotation Xrotation
							JOINT lwrist
							{
								OFFSET 0.265709 0.012698 -0.007375
								CHANNELS 3 Zrotation Yrotation Xrotation
								End Site
								{
									OFFSET 0.000000 0.000000 0.000000
								}
							}
						}
					}
				}
				JOINT rclavicle
				{
					OFFSET -0.082954 0.112472 -0.023707
					CHANNELS 3 Zrotation Yrotation Xrotation
					JOINT rshoulder
					{
						OFFSET -0.113228 0.046853 -0.008472
						CHANNELS 3 Zrotation Yrotation Xrotation
						JOINT relbow
						{
							OFFSET -0.260127 -0.014369 -0.031269
							CHANNELS 3 Zrotation Yrotation Xrotation
							JOINT rwrist
							{
								OFFSET -0.269108 0.006794 -0.006027
								CHANNELS 3 Zrotation Yrotation Xrotation
								End Site
								{
									OFFSET 0.000000 0.000000 0.000000
								}
							}
						}
					}
				}
			}
		}
	}
}
MOTION
Frames: 10
Frame Time: 0.033333
0.323392 0.232990 0.954191 50.454938 -4.055054 89.110151 4.505268 10.827832 -7.192720 0.059970 12.195374 34.312819 -0.492883 13.537998 -28.131394 0.000000 -0.000000 0.000000 -14.488391 -2.342058 -29.659103 -2.444434 -1.236972 34.832994 11.072401 -1.450925 -6.617234 0.000000 -0.000000 0.000000 5.380708 -5.556541 38.452743 6.368513 -6.562522 1.874381 4.580817 -2.935407 0.310196 -0.539499 1.894884 -20.763152 4.662623 -1.334180 0.835536 -17.054023 -42.458471 -3.427740 -36.868427 -44.029250 10.711083 21.065269 -61.698455 -8.021007 37.742975 -21.336507 2.353648 19.377911 31.090412 0.380917 32.398055 24.132559 8.728901 -88.209753 65.023140 -78.983904 -32.286790 9.573101 -10.062104 
0.324270 0.236242 0.955973 52.154941 -3.663336 88.406208 4.921827 10.075549 -6.745029 -0.264379 11.719317 34.024160 0.056324 13.277367 -27.781009 0.000000 -0.000000 0.000000 -14.395334 -2.593467 -27.953798 -2.700840 -1.438999 33.896921 10.843393 -2.277394 -6.411696 0.000000 -0.000000 0.000000 5.343875 -5.102544 36.651631 6.045563 -6.477242 1.518348 4.392774 -2.721979 0.626375 -0.372585 1.590556 -21.009508 4.682836 -1.361643 1.086748 -17.760496 -41.619975 -3.010063 -39.305555 -44.234265 11.723253 20.957569 -61.886367 -8.508432 38.856258 -19.309002 0.506420 19.898907 30.730396 0.483679 33.505747 24.344543 9.338922 -85.633233 65.237192 -72.351656 -35.522102 11.749003 -3.111041 
0.325090 0.239734 0.956536 53.836906 -3.299876 87.564459 5.252708 8.919502 -6.160274 -0.380838 11.503088 33.671421 0.128050 13.024348 -27.493316 0.000000 -0.000000 0.000000 -14.365545 -2.685450 -26.135554 -3.246645 -1.935924 32.977444 10.677380 -2.785735 -6.270860 0.000000 -0.000000 0.000000 5.181007 -5.026495 34.387763 5.830790 -6.978985 3.524014 3.395800 -1.832352 -0.199376 0.135846 2.507895 -22.585758 4.218652 -2.554955 2.271693 -17.143430 -40.076295 -3.872430 -42.104300 -44.300307 13.221971 20.332603 -62.316278 -7.612128 39.352848 -17.745290 -2.186976 20.672339 30.391024 0.876479 34.531814 25.660335 10.071670 -83.298171 64.680334 -67.713426 -38.683273 14.963351 0.153878 
0.325581 0.242969 0.958362 56.123765 -2.735115 86.923832 5.681616 7.542544 -5.911357 -0.685758 10.809825 33.291877 0.229549 13.048773 -27.031518 0.000000 -0.000000 0.000000 -13.987101 -2.459552 -23.995955 -3.783805 -2.077429 31.551401 10.209341 -4.200757 -6.337682 0.000000 -0.000000 0.000000 4.844575 -4.178488 31.970682 5.552897 -6.659140 3.914277 3.333190 -1.562853 -0.371224 0.352132 1.870888 -22.912749 4.236648 -2.870797 2.188546 -18.096267 -38.644268 -3.224683 -45.104907 -43.916665 14.732401 20.859365 -63.542215 -9.786337 38.941984 -14.111005 -4.745555 21.315161 29.558483 1.149181 35.063887 26.155132 10.433324 -82.343850 64.712710 -64.883760 -39.244834 17.590921 4.765973 
0.325884 0.244299 0.959885 57.801220 -2.233727 86.536340 6.021496 6.985310 -5.850427 -0.735258 9.977089 33.200431 0.472529 13.026122 -26.760628 0.000000 -0.000000 0.000000 -13.509703 -2.460761 -22.419954 -4.125226 -2.262924 30.402656 9.632721 -5.373439 -6.201381 0.000000 -0.000000 0.000000 4.753263 -3.926525 30.693502 5.370879 -6.488912 3.873697 3.285340 -1.472343 -0.386050 0.436891 0.641538 -22.675084 4.699306 -2.918249 1.680847 -18.812259 -37.494799 -2.827393 -46.783638 -43.322646 15.787767 21.178775 -64.658332 -10.796988 39.545978 -11.549814 -7.050611 21.486511 29.078155 1.138376 35.398998 26.174435 10.839443 -81.766648 65.072419 -63.161363 -38.650329 18.575929 6.964123 
0.326395 0.245273 0.961402 60.684205 -1.650177 85.948842 6.501724 5.919683 -5.871108 -0.850760 9.034338 33.240362 0.636261 12.645912 -26.388481 0.000000 -0.000000 0.000000 -13.109220 -2.398264 -20.078394 -4.221731 -2.524421 29.083516 8.474696 -7.255044 -6.379216 0.000000 -0.000000 0.000000 4.591133 -3.667112 28.466208 5.259386 -6.755609 4.710183 2.946543 -1.095216 -0.614200 0.892445 0.449377 -22.981317 4.862162 -2.814767 2.179976 -19.647896 -36.324365 -1.878204 -48.049803 -42.181740 16.230730 22.652634 -66.436184 -12.560281 38.151262 -10.342599 -8.609707 21.587074 28.495329 2.000520 35.190436 26.251313 10.495172 -82.510069 65.722627 -62.927916 -37.247712 19.235403 8.594073 
0.327953 0.243886 0.962691 63.874523 -1.024926 85.322463 7.198952 5.221435 -5.646823 -1.493748 7.377884 32.814069 0.982789 12.611929 -25.817974 0.000000 -0.000000 0.000000 -12.427163 -2.452240 -18.082952 -3.964803 -1.997070 28.893456 7.099876 -9.401556 -7.918344 0.000000 -0.000000 0.000000 4.458245 -3.080267 25.990442 5.137724 -6.488897 5.409796 2.826036 -1.368019 -0.603976 1.416811 -0.347309 -22.937079 5.041161 -2.556267 2.664798 -21.011860 -34.987294 -0.753844 -49.271369 -40.613384 17.171368 23.478249 -68.867573 -14.005393 38.818209 -7.803107 -11.444779 21.726510 27.414883 2.045318 34.883503 25.850606 10.746628 -83.101990 66.949934 -62.467661 -35.977907 19.972639 10.267239 
0.330120 0.241023 0.964313 67.531767 -0.521537 84.608031 7.932423 4.674042 -5.196104 -2.333398 5.216724 32.152485 0.867900 11.964837 -25.373523 0.000000 -0.000000 0.000000 -12.158377 -2.547153 -15.927269 -3.039224 -1.586852 29.264780 6.826907 -8.233460 -11.609695 0.000000 -0.000000 0.000000 4.246358 -2.631091 23.903905 4.919390 -6.421216 5.768763 2.616632 -1.535496 -0.609473 1.978977 -0.394313 -22.532654 4.836461 -2.979030 3.035739 -21.869086 -33.165958 -0.270129 -50.581298 -38.210505 18.498114 24.609447 -71.569769 -14.560800 39.136554 -6.570030 -12.856072 21.875482 26.272249 1.775667 33.974470 25.471270 10.534918 -83.042512 69.046483 -62.239891 -35.780112 20.463639 10.971919 
0.332486 0.236529 0.965432 71.099278 -0.073044 84.413716 8.776994 4.218128 -5.149409 -3.191903 3.186339 31.239124 0.827202 10.964855 -24.783867 0.000000 -0.000000 0.000000 -11.530093 -2.550471 -14.597498 -1.522372 0.192804 29.692341 6.658283 -5.933173 -15.320161 0.000000 -0.000000 0.000000 3.873704 -1.996770 21.404648 4.777007 -6.136637 5.819366 2.377850 -1.470946 -0.375827 2.406769 -0.246120 -22.158158 4.315548 -3.750698 3.458207 -22.696464 -30.531190 -0.369175 -51.870682 -35.715581 19.372650 22.225068 -74.009978 -10.668738 37.313853 -6.596321 -12.909927 21.981968 24.719617 1.722958 33.134378 25.639729 9.739833 -83.699903 70.921380 -62.190185 -34.692546 21.245170 11.712736 
0.335867 0.229296 0.967361 75.438345 -0.116361 83.677918 9.193273 3.551762 -4.322718 -3.997995 0.908658 29.655185 0.669627 9.910224 -23.790374 0.000000 -0.000000 0.000000 -10.735693 -2.393884 -12.329690 -1.342686 1.824839 30.109953 5.971311 -5.789418 -18.512217 0.000000 -0.000000 0.000000 2.896488 -0.954815 18.920121 4.178736 -5.587756 6.208946 2.002718 -1.120552 -0.456520 2.895875 -0.031722 -21.291060 3.793897 -4.620132 4.165247 -22.812010 -27.776395 -0.176757 -51.874011 -31.934303 19.773690 18.005064 -76.539414 -5.509938 37.701303 -6.482769 -14.193269 21.520830 23.807916 1.332579 32.308216 25.282239 9.165708 -85.582983 71.370994 -63.386491 -34.591253 22.391959 11.911151 
